# xmcd
#
# Track frame offsets: 
#        150
#        12047
#        29157
#        38935
#        50499
#        61762
#        73385
#        86796
#        97789
#        107403
#        122393
#        132330
#        143266
#        156960
#        168655
#        180017
#        192435
#        204727
#        216360
#        227146
#
# Disc length: 3176 seconds
#
# Revision: 1
# Processed by: cddbd v1.5.2PL0 Copyright (c) Steve Scherf et al.
# Submitted via: ExactAudioCopy v1.3
#
DISCID=140c6614
DTITLE=Various Artist - 120 % Heroes Of Country CD4
DYEAR=2004
DGENRE=Country
TTITLE0=Johnny Cash - Thanks A Lot
TTITLE1=Conny Francis - Love Is Strange
TTITLE2=Frankie Laine - Gunfight At The O K Corral
TTITLE3=Don Gibson - Sea Of Heartbreak
TTITLE4=Patsy Cline - A Stranger In My Arms
TTITLE5=Roy Rogers - Hi-Ho Silver
TTITLE6=Ferlin Husky - Country Music Is Here To Stay
TTITLE7=Gene Autry - Can't Shake The Sands Of Texas From My Shoes
TTITLE8=Hank Locklin - Geisha Girl
TTITLE9=John Anderson - Country Comfort
TTITLE10=Buck Owens - I've Got A Tiger By The Tail
TTITLE11=Justin Tubb - Take A Letter Miss Gray
TTITLE12=Lynn Anderson - Keep Me In Mind
TTITLE13=Holly Dunn - Are You Ever Gonna Love Me
TTITLE14=Conway Twitty - Hello Darlin'
TTITLE15=Willie Nelson - Shelter Of Your Arms
TTITLE16=Hank Thompson - Wild Side Of Life
TTITLE17=Charlie Walker - Pick Me Up On Your Way Down
TTITLE18=Hank Locklin - Please Help Me I'm Falling
TTITLE19=Don Gibson - Oh, Lonesome Me
EXTD=
EXTT0=
EXTT1=
EXTT2=
EXTT3=
EXTT4=
EXTT5=
EXTT6=
EXTT7=
EXTT8=
EXTT9=
EXTT10=
EXTT11=
EXTT12=
EXTT13=
EXTT14=
EXTT15=
EXTT16=
EXTT17=
EXTT18=
EXTT19=
PLAYORDER=
